<?xml version="1.0" encoding="UTF-8" standalone="no"?>
<!-- Created with Inkscape (http://www.inkscape.org/) -->

<svg
   xmlns:svg="http://www.w3.org/2000/svg"
   xmlns="http://www.w3.org/2000/svg"
   version="1.1"
   width="1610"
   height="1610"
   id="svg2">
  <defs
     id="defs4" />
  <g
     transform="translate(430,272.63782)"
     id="layer1">
    <path
       d="m 375,-270.13783 c -443.208518,0 -802.5,359.291482 -802.5,802.5 0,443.20849 359.291482,802.50003 802.5,802.50003 443.20849,0 802.5,-359.29154 802.5,-802.50003 0,-443.208518 -359.29151,-802.5 -802.5,-802.5 z m 0,44.86025 c 418.43287,0 757.6398,339.20688 757.6398,757.63975 0,418.43287 -339.20693,757.63973 -757.6398,757.63973 -418.432871,0 -757.63975,-339.20686 -757.63975,-757.63973 0,-418.43287 339.206879,-757.63975 757.63975,-757.63975 z"
       id="path2830"
       style="fill:#ff0000;fill-opacity:1;stroke:none" />
    <path
       d="m 375,-15.929755 c -302.813257,0 -548.29193,245.478665 -548.29193,548.291925 0,302.81326 245.478673,548.29193 548.29193,548.29193 302.81326,0 548.29193,-245.47867 548.29193,-548.29193 C 923.29193,229.54891 677.81326,-15.929755 375,-15.929755 z m 0,67.290372 c 265.64983,0 481.00155,215.351733 481.00155,481.001553 0,265.64983 -215.35172,481.00153 -481.00155,481.00153 -265.64982,0 -481.00155,-215.3517 -481.00155,-481.00153 0,-265.64982 215.35173,-481.001553 481.00155,-481.001553 z"
       id="path3606"
       style="fill:#ff0000;fill-opacity:1;stroke:none" />
    <path
       d="m 375,218.34043 c -173.42942,0 -314.021739,140.59232 -314.021739,314.02174 0,173.42942 140.592319,314.02174 314.021739,314.02174 173.42942,0 314.02174,-140.59232 314.02174,-314.02174 C 689.02174,358.93275 548.42942,218.34043 375,218.34043 z m 0,80.25 c 129.10856,0 233.77174,104.66318 233.77174,233.77174 0,129.10856 -104.66318,233.77174 -233.77174,233.77174 -129.10856,0 -233.77174,-104.66318 -233.77174,-233.77174 0,-129.10856 104.66318,-233.77174 233.77174,-233.77174 z"
       id="path3612"
       style="fill:#ff0000;fill-opacity:1;stroke:none" />
    <path
       d="m 1297.1429,587.14288 a 497.14285,497.14285 0 1 1 -994.28575,0 497.14285,497.14285 0 1 1 994.28575,0 z"
       transform="matrix(0.19551162,0,0,0.19551162,218.59071,417.56891)"
       id="path3616"
       style="fill:#ff0000;fill-opacity:1;stroke:none" />
  </g>
</svg>
